<?xml version="1.0" encoding="UTF-8" standalone="no"?>
<svg xmlns="http://www.w3.org/2000/svg" width="26.340023" height="35.999779" viewBox="0 0 6.9691309 9.5249417">
  <path d="M5.63713 0 1.332.01.08328 1.6629h6.80258zM0 1.81902v1.60843h6.96913V1.81902zm1.38389.30782c.27424.00006.49654.22237.49661.49661-.00007.27425-.22237.49655-.49661.49661C1.10964 3.12.88733 2.8977.88727 2.62345c.00006-.27424.22237-.49655.49662-.49661zm2.99362.25899h1.60145c.085 0 .15348.0684.15348.15347 0 .085-.0684.15348-.15348.15348H4.37751c-.085 0-.15348-.0684-.15348-.15348 0-.085.0684-.15347.15348-.15347zm-3.00234.0196c-.117.005-.20941.10091-.20929.218-.00003.12041.0976.21803.21801.218.12041.00003.21803-.0976.218-.218.00003-.12042-.0976-.21803-.218-.218-.003-.00005-.006-.00005-.009 0zM0 3.61099v1.60843h6.96913V3.61099zm1.38389.30782c.27424.00006.49654.22236.49661.49661-.00007.27424-.22237.49654-.49661.49661-.27425-.00007-.49656-.22237-.49662-.49661.00006-.27425.22237-.49655.49662-.49661zm2.99362.25898h1.60145c.085 0 .15348.0684.15348.15348 0 .085-.0684.15347-.15348.15347H4.37751c-.085 0-.15348-.0684-.15348-.15347 0-.085.0684-.15348.15348-.15348zm-3.00234.0196c-.117.005-.20941.10092-.20929.21801-.00003.12041.0976.21803.21801.218.12041.00003.21803-.0976.218-.218.00003-.12042-.0976-.21803-.218-.21801-.003-.00005-.006-.00005-.009 0zM0 5.40295v1.60843h6.96913V5.40295Zm1.38389.30782c.27424.00006.49654.22237.49661.49662-.00007.27424-.22237.49654-.49661.49661-.27425-.00007-.49656-.22237-.49662-.49661.00006-.27425.22237-.49656.49662-.49662zm2.99362.25899h1.60145c.085 0 .15348.0684.15348.15348 0 .085-.0684.15347-.15348.15347H4.37751c-.085 0-.15348-.0684-.15348-.15347 0-.085.0684-.15348.15348-.15348zm-3.00234.0196c-.117.005-.20941.10091-.20929.21801-.00003.1204.0976.21802.21801.218.12041.00002.21803-.0976.218-.218.00003-.12042-.0976-.21803-.218-.21801-.003-.00005-.006-.00005-.009 0zm1.85826 1.22169v.75255h.50184v-.75255zm-.44604.91998v1.39391H4.1813V8.13103zm-2.75992.44603v.50185h2.56459v-.50185zm4.34873 0v.50185h2.56503v-.50185z"/>
<script xmlns=""/></svg>